<?xml version="1.0" encoding="UTF-8"?>
<svg id="Convolucid" xmlns="http://www.w3.org/2000/svg" viewBox="0 0 256 256">
  <rect x="34.93" y="28" width="187.5" height="200" rx="12" ry="12" fill="#f3f3f3"/>
  <path d="M121.11,60.15v70.44l.08,.66c8.56,1.02,17.59,.61,26.01-1.09,6.56-1.32,13.25-3.63,18.62-7.73,9.83-7.5,16.53-20.88,21.31-31.87,6.76-15.56,2.86-32.35-10.64-42.8-13.29-10.28-31.57-13.83-48.04-12.83-18.27,1.11-33.19,8.68-44.91,22.77-9.6,11.55-17.43,25.21-23.4,38.95-4.38,10.07-7.29,20.74-8.06,31.72-3.05,43.19,27.81,90.77,75.07,86.81,11.33-.95,22.61-4.52,32.59-9.94,11.63-6.33,19.66-15.93,26.53-27.09,7.43-12.09,16.63-27.48,14.25-42.48-.08-.52-3.66,4.02-3.12,3.27-2.07,2.85-3.93,5.92-5.68,8.97s-3.49,6.18-4.92,9.41c-.58,1.3-1.51,2.89-1.28,4.34-.02-.15,.12,1.4,.14,2.29,.05,2.23-.12,4.47-.46,6.67-.23,1.52-.53,3.04-.95,4.52-.31,1.08-1.88,4.19-.58,1.99,1.42-2.4,2.63-4.94,4.08-7.32,.37-.6,2.77-2.99,1.68-2.6-.3,.11-1.03,1.26-1.62,1.89-1.69,1.83-3.59,3.47-5.55,5-17.17,13.42-42.43,19.06-63.47,12.88-23.61-6.94-40.94-28.42-47.96-51.37-3.41-11.16-4.52-22.93-3.36-34.54,.56-5.6,1.61-11.2,3.3-16.57,.68-2.16,1.53-4.24,2.35-6.34,1.2-3.06-.98,1.74-1.4,2.48-.3,.51-2.16,2.99-1.13,1.94,6.88-6.99,12.8-13.65,22.19-17.34,8.25-3.24,17.27-4.5,26.1-4.46,17.16,.08,36.87,5.08,48.53,18.52,5.51,6.35,8.45,14.41,7.99,22.84-.12,2.09-.53,4.05-.93,6.1-.07,.35-.29,.66-.34,1.01,.28-1.75,14.96-25.58,4.69-8.12l4.46-7.59-.53,.64c-.23,.2-.4,.47-.63,.68-2.73,2.4-5.6,4.44-8.92,5.95-6.39,2.92-13.55,4.14-20.51,4.67-4.94,.37-9.91-.33-14.8-.03-.63,.04-2.18-.44-1.6,.34-.46-.62,0-3.42,0-4.16V35.5c0-1.57-1.42,.38-1.76,.73-1.96,2.02-3.63,5.07-5.08,7.42-2.02,3.28-3.93,6.64-5.65,10.09-.9,1.81-2.67,4.39-2.67,6.42h0Z" fill="#2e2e2e"/>
</svg>