<?xml version="1.0" encoding="UTF-8"?>
<svg id="menuListStack" xmlns="http://www.w3.org/2000/svg" viewBox="0 0 256 256">
  <rect x="35.23" y="28" width="187.5" height="200" rx="12" ry="12" fill="#f3f3f3"/>
  <g>
    <path d="M80.84,186.99c27.1,0,54.19,0,81.29,0,1.04,0,2.84-2.9,3.12-3.27,2.07-2.85,3.93-5.92,5.68-8.97s3.49-6.18,4.92-9.41c.17-.38,1.79-4.34,1.28-4.34-27.1,0-54.19,0-81.29,0-1.04,0-2.84,2.9-3.12,3.27-2.07,2.85-3.93,5.92-5.68,8.97s-3.49,6.18-4.92,9.41c-.17,.38-1.79,4.34-1.28,4.34h0Z" fill="#2e2e2e"/>
    <path d="M80.84,140.99c27.1,0,54.19,0,81.29,0,1.04,0,2.84-2.9,3.12-3.27,2.07-2.85,3.93-5.92,5.68-8.97s3.49-6.18,4.92-9.41c.17-.38,1.79-4.34,1.28-4.34-27.1,0-54.19,0-81.29,0-1.04,0-2.84,2.9-3.12,3.27-2.07,2.85-3.93,5.92-5.68,8.97s-3.49,6.18-4.92,9.41c-.17,.38-1.79,4.34-1.28,4.34h0Z" fill="#2e2e2e"/>
    <path d="M80.84,94.99c27.1,0,54.19,0,81.29,0,1.04,0,2.84-2.9,3.12-3.27,2.07-2.85,3.93-5.92,5.68-8.97s3.49-6.18,4.92-9.41c.17-.38,1.79-4.34,1.28-4.34-27.1,0-54.19,0-81.29,0-1.04,0-2.84,2.9-3.12,3.27-2.07,2.85-3.93,5.92-5.68,8.97s-3.49,6.18-4.92,9.41c-.17,.38-1.79,4.34-1.28,4.34h0Z" fill="#2e2e2e"/>
  </g>
</svg>