<?xml version="1.0" encoding="UTF-8"?>
<svg id="menuListWheel" xmlns="http://www.w3.org/2000/svg" viewBox="0 0 256 256">
  <rect x="35.23" y="28" width="187.5" height="200" rx="12" ry="12" fill="#f3f3f3"/>
  <g>
    <path d="M73.24,92.75c27.8,27.8,55.6,55.6,83.4,83.4,3.99,3.99,7.99,7.99,11.98,11.98,.84,.84,8.24-11.27,8.8-12.24,.9-1.55,7.9-12.04,6.2-13.74-27.8-27.8-55.6-55.6-83.4-83.4-3.99-3.99-7.99-7.99-11.98-11.98-.84-.84-8.24,11.27-8.8,12.24-.9,1.55-7.9,12.04-6.2,13.74h0Z" fill="#2e2e2e"/>
    <path d="M71.62,188.93c28.88-28.88,57.76-57.76,86.64-86.63,4.05-4.05,8.09-8.09,12.14-12.14,4.28-4.28,7.28-10.18,10.13-15.46,1.39-2.57,3.08-5.3,3.89-8.11,.07-.26,1-3.13-.24-1.89-28.88,28.88-57.76,57.76-86.64,86.63-4.05,4.05-8.09,8.09-12.14,12.14-4.28,4.28-7.28,10.18-10.13,15.46-1.39,2.57-3.08,5.3-3.89,8.11-.07,.26-1,3.13,.24,1.89h0Z" fill="#2e2e2e"/>
    <path d="M136.48,185.01c-26.15-.37-50.75-14.98-62.5-38.58-6.04-12.14-8.57-25.89-6.86-39.35,.81-6.33,2.85-11.71,4.84-17.68-3.36,10.06-5.52,8.47-2.89,5.77,.8-.82,1.49-1.78,2.26-2.62,2.55-2.78,5.39-5.28,8.38-7.57,21.38-16.34,51.12-18.32,74.77-5.74,23.52,12.51,38.27,38.33,36.81,64.97-.21,3.84-.72,7.67-1.58,11.42-.7,3.02-2.6,6.36-2.97,9.35,.13-1.06,4.96-6.93,2.85-5.04-1.06,.95-1.94,2.37-2.9,3.41-2.56,2.78-5.44,5.31-8.45,7.59-12.04,9.14-26.7,13.84-41.76,14.06-1.05,.01-2.83,2.88-3.12,3.27-2.07,2.85-3.93,5.92-5.68,8.97s-3.49,6.18-4.92,9.41c-.17,.38-1.78,4.34-1.28,4.34,15.14-.22,30.09-5.05,42.3-14.06,15.08-11.14,25.24-28.42,33.38-44.95,7.32-14.88,10.99-30.72,8.59-47.29-2.2-15.21-9.81-29.84-20.97-40.41-23.36-22.14-59.19-25.12-86.34-8.19-15.53,9.69-25.92,25.85-34.42,41.63-8.05,14.95-13.88,31.24-12.34,48.46,3.25,36.34,33.31,64.3,69.81,64.82,2.88,.04,7.57-10.12,8.8-12.24,.59-1.02,6.52-13.74,6.2-13.74Z" fill="#2e2e2e"/>
  </g>
</svg>